<svg xmlns="http://www.w3.org/2000/svg" viewBox="0 0 376 367.8"><style>.tele-svg{fill:#455a64}</style><path class="tele-svg" d="M376 124c0-19.9-16.1-36-36-36H226l-1.2-1.6c-8.7-11.7-20.9-20.6-35.3-25.9l-5.9-2.1 51.6-51.6c1.6-1.6 1.6-3.9 0-5.6-.8-.8-1.7-1.2-2.8-1.2s-2 .4-2.8 1.2l-55.9 55.4-2-.3c-2.5-.4-5.1-.4-7.9-.4-3 0-6.1 0-8.6.4l-2 .3-1.4-1.4-54.4-54C96.6.4 95.7 0 94.6 0s-2 .4-2.8 1.2c-1.6 1.6-1.6 3.9 0 5.6l51.6 51.6-5.9 2.1c-14.1 5.1-26.1 14-34.5 25.7l-1.2 1.6H36c-19.9 0-36 16.1-36 36v208c0 19.9 16.1 36 36 36h304c19.9 0 36-16.1 36-36V124zM118.9 80.9C131.7 70 147.7 64 164 64c15.9 0 31.9 6 44.9 16.9l8.5 7.1H110.8l8.1-7.1zM368 332c0 15.4-12.6 28-28 28H36c-15.4 0-28-12.6-28-28V124c0-15.4 12.6-28 28-28h304c15.4 0 28 12.6 28 28v208z"/><path class="tele-svg" d="M264 144c0-4.6-3.4-8-8-8H56c-4.6 0-8 3.4-8 8v168c0 4.6 3.4 8 8 8h200c4.6 0 8-3.4 8-8V144zm-8 168H56V144h200v168zm76-160h-32c-2.2 0-4 1.8-4 4s1.8 4 4 4h32c2.2 0 4-1.8 4-4s-1.8-4-4-4zm0 32h-32c-2.2 0-4 1.8-4 4s1.8 4 4 4h32c2.2 0 4-1.8 4-4s-1.8-4-4-4zm0 32h-32c-2.2 0-4 1.8-4 4s1.8 4 4 4h32c2.2 0 4-1.8 4-4s-1.8-4-4-4z"/></svg>