<svg version="1.1" id="Layer_1" xmlns="http://www.w3.org/2000/svg" x="0" y="0" viewBox="0 0 503.6 386.1" xml:space="preserve"><path d="M495.2 183h-16.8c-14.3 0-25.2 10.9-25.2 25.2v43.6H339.6c-9.2-10.3-22.6-16.8-37.4-16.8-1.6 0-3.2.1-4.8.2l-30-30 97.8-97.8c3.4-3.4 3.4-8.4 0-11.8l-44.7-46c-.4-.7-.8-1.3-1.4-1.9-.5-.5-1.1-.9-1.6-1.3l-42.8-44c-1.7-1.7-3.4-2.5-5.9-2.5s-4.2.8-5.9 2.5L23.5 235.9c-1.7 1.7-2.5 3.4-2.5 5.9s.8 4.2 2.5 5.9l5.9 5.9-16.8 16.8c-1.7 1.7-2.5 3.4-2.5 5.9s.8 4.2 2.5 5.9l6.3 6.3-16.4 16.2c-3.4 3.4-3.4 8.4 0 11.8l47.8 47.8c1.7 1.7 3.4 2.5 5.9 2.5 1.7 0 4.2-.8 5-2.5L78 347.5l5.9 5.9c1.7 1.7 3.4 2.5 5.9 2.5s5-.8 5.9-2.5l16.8-16.8 5.9 5.9c1.7 1.7 3.4 2.5 5.9 2.5s4.2-.8 5.9-2.5l90.2-90.2 31.5 31.5v1.6c0 27.7 22.7 50.4 50.4 50.4 14.8 0 28.2-6.5 37.4-16.8h113.6v42c0 14.3 10.9 25.2 25.2 25.2h16.8c5 0 8.4-3.4 8.4-8.4V191.4c-.1-5.1-3.5-8.4-8.5-8.4zM55.4 345.8l-35.3-35.3L31 300.4l35.3 35.3-10.9 10.1zm34.4-10.1L60.4 306l-23.5-24c-.2-.2-.5-.4-.7-.6l-5.2-5.2 10.1-10.9 59.6 59.6-10.9 10.8zm34.4-10.9l-5.9-5.9L47 247.6l-5.9-5.9L268.6 20.1l32.6 33.7-18.4 18.4c-3.4 3.4-3.4 8.4 0 11.8 1.7 1.7 3.4 2.5 5.9 2.5 1.7 0 4.2-.8 5.9-2.5l18.2-18.2 11.6 11.9-29.7 29.7c-3.4 3.4-3.4 8.4 0 11.8 1.7 1.7 3.4 2.5 5.9 2.5 1.7 0 4.2-.8 5.9-2.5l29.6-29.6 11.6 11.9-223.5 223.3zm108.3-83.9l23.5-23.5 23.2 23.2a50.55 50.55 0 00-22.9 24.1l-23.8-23.8zm69.7 78.1c-18.5 0-33.6-15.1-33.6-33.6 0-13.5 8.1-25.3 19.7-30.6 2.3-1 4.7-1.7 7.1-2.2.5-.1.9-.2 1.3-.4 1.8-.3 3.6-.4 5.4-.4 11.5 0 21.7 5.9 27.8 14.8 2.6 3.9 4.4 8.3 5.3 12.9 0 .2.1.3.1.5 0 .3.1.5.1.8 0 .3.1.6.1.8 0 .2 0 .4.1.6 0 .3.1.7.1 1v2.1s0 0 0 0 0 0 0 0v2.1c0 .3 0 .7-.1 1 0 .2 0 .4-.1.6 0 .3-.1.6-.1.8 0 .3-.1.5-.1.8 0 .2-.1.3-.1.5-.8 4.7-2.7 9-5.3 12.9-6 9.1-16.2 15-27.7 15zm47.8-16.8c1.7-5 3.4-10.9 3.4-16.8s-1.7-11.8-3.4-16.8h103.2v33.6H350h0zm136.8 67.1h-8.4c-5 0-8.4-3.4-8.4-8.4V208.1c0-5 3.4-8.4 8.4-8.4h8.4v169.6z" fill="#455a64" stroke="#efefef" stroke-width="6" stroke-miterlimit="10"/></svg>