<svg xmlns="http://www.w3.org/2000/svg" viewBox="0 0 342.97 306.67"><defs><style>.two-in-one-svg{fill:#455a64}</style></defs><path class="two-in-one-svg" d="M343 237a48 48 0 00-47.89-47.89H183V15.66c0-7.85-6.39-14.94-14-15.47h-1.19a15.15 15.15 0 00-15.14 15.11v173.77H47.89A48 48 0 000 237v29a18.83 18.83 0 0018.81 18.81h10.27v17.32a4.45 4.45 0 003.6 4.45 4.28 4.28 0 004.94-4.23v-17.5h275v17.32a4.45 4.45 0 003.6 4.45 4.27 4.27 0 004.94-4.23v-17.54h3A18.83 18.83 0 00343 266zM161.21 15.3a6.65 6.65 0 016.65-6.63 6.91 6.91 0 011.27.12 6.79 6.79 0 015.35 6.66v173.62h-13.27zM334.43 266a10.29 10.29 0 01-10.27 10.27H18.81A10.28 10.28 0 018.54 266v-29a39.4 39.4 0 0139.35-39.35h247.19A39.4 39.4 0 01334.43 237z"/><path class="two-in-one-svg" d="M218.44 45.39a4.31 4.31 0 00-3.36-1.6 4.18 4.18 0 00-2.67 1 4.32 4.32 0 00-1.58 2.9 4.21 4.21 0 00.92 3.13c8.37 10.39 8.38 27.93 0 38.31a3.89 3.89 0 00-.94 2.93 4.3 4.3 0 001.59 3 4.18 4.18 0 002.67.95 4.32 4.32 0 003.36-1.6c11.1-13.81 11.1-35.3.01-49.02zm28.82-14.85a4.2 4.2 0 00-3.08-1.31 4.15 4.15 0 00-2.92 1.17 4.23 4.23 0 00-1.33 3 4.14 4.14 0 001.17 3 48.44 48.44 0 010 66.77 4.3 4.3 0 003.13 7.27 4.19 4.19 0 003-1.27c20.96-21.68 20.95-56.95.03-78.63zm26.05 108.97a4.08 4.08 0 002.83-1.13c19.66-18.38 30.48-42.72 30.48-68.56S295.8 19.51 276.17 1.28a4.28 4.28 0 00-3-1.28 4.1 4.1 0 00-3 1.29 4.28 4.28 0 00-1.26 3.09 4.11 4.11 0 001.29 2.92l.25.25c17.82 16.63 27.65 38.75 27.65 62.27s-9.84 45.66-27.71 62.32a4.08 4.08 0 00-1.38 2.93 4.17 4.17 0 001.15 3.06 4.41 4.41 0 003.15 1.38zM124.86 91.63a4.44 4.44 0 00-1-2.74c-8.35-10.35-8.34-27.88 0-38.26a4.23 4.23 0 00.93-3.14 4.33 4.33 0 00-1.58-2.9 4.18 4.18 0 00-2.67-1 4.33 4.33 0 00-3.36 1.61c-11.08 13.72-11.08 35.21 0 48.93a4.15 4.15 0 003.34 1.72 4.27 4.27 0 004.34-4.22zm-30.4-61.15a4.3 4.3 0 00-3-1.19 4.15 4.15 0 00-3 1.3c-21 21.58-21 56.8 0 78.51a4.21 4.21 0 003.08 1.32 4.15 4.15 0 002.92-1.17 4.31 4.31 0 00.16-6 48.44 48.44 0 010-66.77 4.25 4.25 0 00-.16-6z"/><path class="two-in-one-svg" d="M69.6.27a4.35 4.35 0 00-2.85 1.06c-19.59 18.2-30.4 42.53-30.4 68.5s10.81 50.31 30.45 68.54a4.32 4.32 0 002.9 1.16 4.25 4.25 0 002.88-7.4C54.73 115.4 44.89 93.27 44.89 69.82S54.73 24.16 72.6 7.5a4.23 4.23 0 00-3-7.23zm-7.17 225.22A11.54 11.54 0 1074 237a11.55 11.55 0 00-11.57-11.51zm43.62 0A11.54 11.54 0 10117.59 237a11.55 11.55 0 00-11.54-11.51z"/></svg>