<svg xmlns="http://www.w3.org/2000/svg" viewBox="0 0 447 295"><style>.laptop-svg{fill:#455a64}</style><path class="laptop-svg" d="M239.1 240h-27.6c-2 0-3.5 1.5-3.5 3.5s1.5 3.5 3.5 3.5h27.6c2 0 3.5-1.5 3.5-3.5s-1.5-3.5-3.5-3.5z"/><path class="laptop-svg" d="M446.6 243.6c0-2-1.6-3.6-3.5-3.6H411V35.5C411 15.9 395.1 0 375.5 0h-304C51.9 0 36 15.9 36 35.5V240H3.5c-2 0-3.5 1.5-3.5 3.5v16C0 279.1 15.9 295 35.5 295h376c19.6 0 35.5-15.9 35.5-35.5l-.4-15.9zm-271.2-.1c0-2-1.5-3.5-3.5-3.5H43V35.5C43 19.8 55.8 7 71.5 7h304C391.2 7 404 19.8 404 35.5V240H279.5c-2 0-3.5 1.5-3.5 3.5s1.5 3.5 3.5 3.5H440v12.5c0 15.7-12.8 28.5-28.5 28.5h-376C19.8 288 7 275.2 7 259.5V247h164.9c2 0 3.5-1.5 3.5-3.5z"/><path class="laptop-svg" d="M371.5 32h-296c-4.3 0-7.5 3.2-7.5 7.5v168c0 4.3 3.2 7.5 7.5 7.5h296c4.3 0 7.5-3.2 7.5-7.5v-168c0-4.3-3.2-7.5-7.5-7.5zm.5 7v169H75V39h297z"/></svg>