<svg version="1.1" id="Layer_1" xmlns="http://www.w3.org/2000/svg" x="0" y="0" viewBox="0 0 512 512" xml:space="preserve"><style>.st0{fill:#455a64;stroke:#efefef;stroke-width:4;stroke-miterlimit:10}</style><path class="st0" d="M262.8 317.2c-1.9-4-6.7-5.8-10.8-3.8-6.6 3.1-13.4 5.7-20.4 7.6-2.9.8-5.2 3.2-5.7 6.2l-8.6 42.8c-.8 4.2-4.6 7.3-8.9 7.3h-23.3c-4.3 0-8-3.1-8.9-7.3l-8.6-42.8c-.6-3-2.8-5.4-5.7-6.2-9.9-2.8-19.4-6.7-28.4-11.8-2.7-1.5-5.9-1.4-8.5.3l-36.3 24.2c-3.6 2.4-8.4 1.9-11.4-1.1l-16.5-16.5c-3-3-3.5-7.9-1.1-11.4l24.2-36.3c1.7-2.5 1.8-5.8.3-8.5-5-8.9-9-18.5-11.8-28.4-.8-2.9-3.2-5.2-6.2-5.7l-42.8-8.6c-4.2-.8-7.3-4.6-7.3-8.9V185c0-4.3 3.1-8 7.3-8.9l42.8-8.6c3-.6 5.4-2.8 6.2-5.7 2.8-9.9 6.7-19.4 11.8-28.4 1.5-2.7 1.4-5.9-.3-8.5L59.7 88.7c-2.4-3.6-1.9-8.4 1.1-11.4l16.5-16.5c3-3 7.9-3.5 11.4-1.1L125 83.9c2.5 1.7 5.8 1.8 8.5.3 8.9-5 18.5-9 28.4-11.8 2.9-.8 5.2-3.2 5.7-6.2l8.6-42.8c.8-4.2 4.6-7.3 8.9-7.3h23.3c4.3 0 8 3.1 8.9 7.3l8.6 42.8c.6 3 2.8 5.4 5.7 6.2 9.9 2.8 19.4 6.7 28.4 11.8 2.7 1.5 5.9 1.4 8.5-.3l36.3-24.2c3.6-2.4 8.4-1.9 11.4 1.1l16.5 16.5c3 3 3.5 7.9 1.1 11.4L309.6 125c-1.7 2.5-1.8 5.8-.3 8.5 5 8.9 9 18.5 11.8 28.4.8 2.9 3.2 5.2 6.2 5.7l42.8 8.6c4.2.8 7.3 4.6 7.3 8.9v23.3c0 4.3-3.1 8-7.3 8.9l-42.8 8.6c-3 .6-5.4 2.8-6.2 5.8-2 7.2-4.7 14.2-7.9 20.9-1.9 4-.2 8.9 3.8 10.8 4 1.9 8.9.2 10.8-3.8 2.9-6.1 5.4-12.4 7.4-18.8l38-7.6c11.7-2.4 20.3-12.8 20.3-24.7v-23.3c0-12-8.5-22.4-20.3-24.7l-38-7.6c-2.5-7.8-5.6-15.5-9.4-22.8l21.5-32.2c6.6-10 5.3-23.4-3.2-31.8l-16.5-16.5c-8.5-8.5-21.9-9.8-31.8-3.2l-32.2 21.5c-7.3-3.8-14.9-6.9-22.8-9.4l-7.6-38C230.8 8.5 220.4 0 208.4 0h-23.3c-12 0-22.4 8.5-24.7 20.3l-7.6 38c-7.8 2.5-15.5 5.7-22.8 9.4L97.7 46.2c-10-6.6-23.4-5.3-31.8 3.2L49.4 65.9c-8.5 8.5-9.8 21.9-3.2 31.8l21.5 32.2c-3.8 7.3-6.9 14.9-9.4 22.8l-38 7.6C8.5 162.7 0 173.1 0 185.1v23.3c0 12 8.5 22.4 20.3 24.7l38 7.6c2.5 7.8 5.7 15.5 9.4 22.8l-21.5 32.2c-6.6 10-5.3 23.4 3.2 31.8L65.9 344c8.5 8.5 21.9 9.8 31.8 3.2l32.2-21.5c7.3 3.8 14.9 6.9 22.8 9.4l7.6 38c2.4 11.8 12.8 20.3 24.7 20.3h23.3c12 0 22.4-8.5 24.7-20.3l7.6-38c6.2-2 12.3-4.4 18.2-7.2 4.2-1.8 5.9-6.7 4-10.7z"/><path class="st0" d="M266.7 241.6c1.2.6 2.4.9 3.7.9 2.9 0 5.8-1.6 7.2-4.4 6.5-12.7 10-27 10-41.4 0-50.1-40.8-90.9-90.9-90.9-23.8 0-46.4 9.2-63.4 25.8-3.2 3.1-3.3 8.2-.1 11.4s8.2 3.3 11.4.1c14-13.7 32.5-21.2 52.1-21.2 41.2 0 74.7 33.5 74.7 74.7 0 12-2.8 23.4-8.2 34-2 4.1-.4 9 3.5 11zM121 162.1c-4.2-1.5-8.8.8-10.3 5-3.3 9.5-4.9 19.4-4.9 29.6 0 50.1 40.8 90.9 90.9 90.9 19.3 0 37.7-6 53.2-17.2 3.6-2.6 4.4-7.7 1.8-11.3s-7.7-4.4-11.3-1.8c-12.8 9.3-27.9 14.2-43.8 14.2-41.2 0-74.7-33.5-74.7-74.7 0-8.3 1.4-16.5 4-24.3 1.6-4.3-.6-8.9-4.9-10.4zm375.4 191.2l-23.4-4.7c-1.4-4.2-3.1-8.4-5.1-12.4l13.2-19.8c5.1-7.6 4.1-17.9-2.4-24.4l-10.8-10.8c-6.5-6.5-16.8-7.5-24.4-2.4L423.6 292c-4-2-8.1-3.7-12.4-5.1l-4.7-23.4c-1.8-9-9.8-15.6-19-15.6h-15.3c-9.2 0-17.2 6.5-19 15.6l-4.7 23.4c-4.2 1.4-8.4 3.1-12.4 5.1l-19.8-13.2c-7.6-5.1-17.9-4.1-24.4 2.4L281.2 292c-6.5 6.5-7.5 16.8-2.4 24.4l13.2 19.8c-2.7 5.5-4.9 11.3-6.6 17.2-1.2 4.3 1.3 8.8 5.6 10 4.3 1.2 8.8-1.3 10-5.6 1.8-6.3 4.3-12.4 7.5-18 1.5-2.7 1.4-5.9-.3-8.5l-15.9-23.8c-.8-1.3-.7-2.9.4-4l10.8-10.8c1.1-1.1 2.8-1.2 4-.4l23.8 15.9c2.5 1.7 5.8 1.8 8.5.3 5.7-3.2 11.8-5.7 18-7.5 2.9-.8 5.2-3.2 5.7-6.2l5.6-28.1c.3-1.5 1.6-2.6 3.1-2.6h15.3c1.5 0 2.8 1.1 3.1 2.6l5.6 28.1c.6 3 2.8 5.4 5.7 6.2 6.3 1.8 12.4 4.3 18 7.5 2.7 1.5 5.9 1.4 8.5-.3l23.8-15.9c1.3-.8 2.9-.7 4 .4l10.8 10.8c1.1 1.1 1.2 2.8.4 4l-15.9 23.8c-1.7 2.5-1.8 5.8-.3 8.5 3.2 5.7 5.7 11.8 7.5 18 .8 2.9 3.2 5.2 6.2 5.7l28.1 5.6c1.5.3 2.6 1.6 2.6 3.1v15.3c0 1.5-1.1 2.8-2.6 3.1l-28.1 5.6c-3 .6-5.4 2.8-6.2 5.7-1.8 6.3-4.3 12.4-7.5 18-1.5 2.7-1.4 5.9.3 8.5l15.9 23.8c.8 1.3.7 2.9-.4 4L456.2 467a3.19 3.19 0 01-4 .4l-23.8-15.9c-2.5-1.7-5.8-1.8-8.5-.3-5.7 3.2-11.8 5.7-18 7.5-2.9.8-5.2 3.2-5.7 6.2l-5.6 28.1c-.3 1.5-1.6 2.6-3.1 2.6h-15.3c-1.5 0-2.8-1.1-3.1-2.6l-5.6-28.1c-.6-3-2.8-5.4-5.7-6.2-6.3-1.8-12.4-4.3-18-7.5-2.7-1.5-5.9-1.4-8.5.3l-23.8 15.9c-1.3.8-2.9.7-4-.4l-10.8-10.8a3.19 3.19 0 01-.4-4l15.9-23.8c1.7-2.5 1.8-5.8.3-8.5-3.2-5.7-5.7-11.8-7.5-18-.8-2.9-3.2-5.2-6.2-5.7l-28.1-5.6c-1.5-.3-2.6-1.6-2.6-3.1v-15.3c0-1.5 1.1-2.8 2.6-3.1l1.7-.3c4.4-.9 7.2-5.1 6.3-9.5-.9-4.4-5.1-7.2-9.5-6.3l-1.7.3c-9 1.8-15.6 9.8-15.6 19v15.3c0 9.2 6.5 17.2 15.6 19l23.4 4.7c1.4 4.2 3.1 8.4 5.1 12.4l-13.2 19.8c-5.1 7.6-4.1 17.9 2.4 24.4l10.8 10.8c6.5 6.5 16.8 7.5 24.4 2.4l19.8-13.2c4 2 8.1 3.7 12.4 5.1l4.7 23.4c1.8 9 9.8 15.6 19 15.6h15.3c9.2 0 17.2-6.5 19-15.6l4.7-23.4c4.2-1.4 8.4-3.1 12.4-5.1l19.8 13.2c7.6 5.1 17.9 4.1 24.4-2.4l10.8-10.8c6.5-6.5 7.5-16.8 2.4-24.4l-13.2-19.8c2-4 3.7-8.1 5.1-12.4l23.4-4.7c9-1.8 15.6-9.8 15.6-19v-15.3c0-9.2-6.5-17.2-15.6-19z"/><path class="st0" d="M380 350.9c16 0 29.1 13.1 29.1 29.1 0 4.5 3.6 8.1 8.1 8.1s8.1-3.6 8.1-8.1c0-25-20.3-45.3-45.3-45.3S334.7 355 334.7 380s20.3 45.3 45.3 45.3c10.1 0 19.7-3.3 27.7-9.4 3.5-2.7 4.2-7.8 1.5-11.3-2.7-3.5-7.8-4.2-11.3-1.5-5.1 4-11.3 6.1-17.8 6.1-16 0-29.1-13.1-29.1-29.1-.1-16.2 12.9-29.2 29-29.2zM246 196.7c0-27.2-22.1-49.3-49.3-49.3-27.2 0-49.3 22.1-49.3 49.3 0 27.2 22.1 49.3 49.3 49.3s49.3-22.1 49.3-49.3zm-82.4 0c0-18.2 14.8-33.1 33.1-33.1s33.1 14.8 33.1 33.1-14.8 33.1-33.1 33.1c-18.2 0-33.1-14.8-33.1-33.1z"/></svg>